<?xml version="1.0" encoding="utf-8"?>
<!-- Generator: Adobe Illustrator 27.2.0, SVG Export Plug-In . SVG Version: 6.00 Build 0)  -->
<svg version="1.1" id="Layer_1" xmlns="http://www.w3.org/2000/svg" xmlns:xlink="http://www.w3.org/1999/xlink" x="0px" y="0px"
fill="#22b0fc" viewBox="0 0 1098 433" enable-background="new 0 0 1098 433" xml:space="preserve">
<path d="M1063.9,57.4c0,12.3-0.2,24.6,0.1,36.9c0.1,4.7-1.5,6.2-6.1,5.9c-5.5-0.3-11.1-0.5-16.6,0c-6.3,0.6-9.1-1.6-11-7.8
	c-4.5-14.7-10.9-28.6-21-40.5c-10.7-12.7-24.6-19.5-40.7-22.3c-31.6-5.4-60.5-0.2-84.8,22.1c-18.7,17.1-29.6,39-37.3,62.7
	c-8.8,27.2-12.6,55.1-13.4,83.6c-1.1,41.5,0.6,82.8,12.1,123.1c7.4,25.9,18.2,50,40.1,67.4c20.2,16.1,43.5,19.5,68.3,16.6
	c13.6-1.6,26.6-4.9,37.4-14.1c12.1-10.3,17.5-24.1,18.2-39.2c1-21.5,1.7-43.2-1.3-64.7c-2.5-17.8-12.6-29.4-30.2-33.3
	c-8.8-2-5.3-8.3-5.6-13c-0.4-6.1,4.8-3.9,7.7-3.9c36.7-0.1,73.4-0.1,110.1,0c2.5,0,7.3-1.9,7.1,2.8c-0.2,4.8,3.9,11.2-4.3,14.1
	c-16.6,5.9-22.7,19.1-24.3,35.5c-2.6,26.8-0.9,53.7-1.3,80.6c-0.3,17.1-0.2,34.2,0,51.3c0.1,4.5-1.6,6-5.8,7.8
	c-13.5,5.8-23,3.1-31.8-9.2c-7.7-10.8-8.7-9.9-20.9-3.8c-21.6,10.8-44.6,16.5-68.8,17.1c-22.7,0.6-45-0.3-66.9-7.5
	C834.6,413,809,387,792.6,351.1c-13.2-29.1-19-60-21.4-91.7c-1.9-25.4-2.5-50.7,0.2-76c5.8-53.2,21.7-102.1,61.9-140
	c26.3-24.8,57.9-38.1,93.8-41.6c44-4.3,87,1.8,129.8,11.3c5.4,1.2,7.4,3.2,7.2,8.9C1063.6,33.7,1063.9,45.6,1063.9,57.4z M384.1,5
	c-3.4,0-7.8-1.7-7.7,4.9c0.2,32.9,0.1,65.8,0,98.7c0,3.5,1.2,5,4.8,4.9c6.8-0.2,13.6-0.3,20.3,0c5,0.3,6.8-1.6,8-6.4
	c4.5-18.5,9.8-36.9,20.4-53.1c8.5-13.1,20.5-20.4,36.3-20.6c14.1-0.1,28.1,0,42.2-0.4c5.3-0.1,6.8,1.6,6.8,6.8
	C515,148.4,515,257,514.9,365.5c0,5.5-0.7,11-1.8,16.4c-2.6,13.4-10.5,22.5-23.6,26.8c-3.8,1.2-7.7,2.2-11.5,3.3
	c-7.4,2.3-3.2,8.4-4,12.8c-0.7,3.7,2.3,3.7,4.9,3.7c44,0,88,0,131.9,0c1.7,0,3.6,0.5,4.7-1.5c3.1-5.1-0.8-14.1-6.8-15.3
	c-17.8-3.8-30.3-13.1-33-32.2c-1-7.4-2.1-14.9-2.1-22.4c0.1-51.5,0.1-103,0.1-154.5c0-54,0.1-108-0.1-162.1c0-5.3,0.9-7.6,6.9-7.4
	c13.8,0.5,27.6,0.2,41.5,0.3c16.5,0,28.7,7.7,37.6,21.2c7.6,11.4,12,24.2,16.3,37.1c2.4,7.1,1.7,17.3,7.2,20.6
	c5.8,3.5,15.1,0.8,22.9,1.3c5.5,0.4,6.7-1.7,6.6-6.8c-0.2-31.2-0.3-62.3,0-93.5c0.1-6.4-1.3-8.5-8.2-8.4
	c-53.3,0.3-106.6,0.2-159.8,0.2C491.1,4.9,437.6,4.9,384.1,5z M197.9,204.9c0-54.5,0.1-109.1-0.2-163.6c0-6.8,2-8.5,8.5-8.3
	c13.8,0.6,27.6,0.1,41.5,0.4c13.6,0.3,24.6,6.3,32.8,17.1c4.4,5.8,8,12.1,10.9,18.9c5.3,12.2,9.4,24.8,12.4,37.8
	c1.1,4.6,3,6.7,8.1,6.3c6-0.5,12.1-0.4,18.1,0c5.3,0.4,6.8-1.4,6.8-6.7c-0.2-31.7-0.2-63.3,0-95c0-5.1-1.1-6.9-6.6-6.9
	C222.4,5,114.6,5,6.7,4.8c-5.1,0-6.3,1.7-6.2,6.5c0.2,26.4,0,52.8,0.2,79.2c0.1,7.4-3.3,17.1,1.6,21.7c4.4,4.2,14,0.5,21.1,1.3
	c6.6,0.8,9-1.9,10.4-8.1c4.1-17.6,9.5-34.8,19.1-50.4c8.8-14.1,21.3-21.6,38-21.7c13.3-0.1,26.7,0.3,40-0.4c7.1-0.3,8.6,2.1,8.6,8.8
	c-0.2,103.5-0.1,207.1-0.2,310.6c0,8.3-0.5,16.6-1.6,24.8c-2.1,16.4-10.2,28.1-27,32.3c-2.7,0.7-5.2,1.9-7.9,2.2
	c-9.3,1.2-4.9,8.4-5.4,13c-0.6,5.6,4.3,3.7,7,3.7c42.2,0.1,84.5,0.1,126.7,0c2.8,0,8.1,2.5,7.8-3.6c-0.3-4.9,3.6-11.6-6.1-13.3
	c-16.5-2.8-29.1-11-32.5-28.9c-1-5.1-2-10.4-2-15.6c-0.1-54-0.1-108.1-0.1-162.1C198,204.9,197.9,204.9,197.9,204.9z"/>
</svg>
