<?xml version="1.0" encoding="utf-8"?>
<!-- Generator: Adobe Illustrator 27.2.0, SVG Export Plug-In . SVG Version: 6.00 Build 0)  -->
<svg version="1.1" id="Layer_1" xmlns="http://www.w3.org/2000/svg" xmlns:xlink="http://www.w3.org/1999/xlink" x="0px" y="0px"
fill="#22b0fc" viewBox="0 0 1584.5 677" enable-background="new 0 0 1584.5 677" xml:space="preserve">
<path d="M1306.8,59.3c0,12.3-0.2,24.6,0.1,36.9c0.1,4.7-1.5,6.2-6.1,5.9c-5.5-0.3-11.1-0.5-16.6,0c-6.3,0.6-9.1-1.6-11-7.8
	c-4.5-14.7-10.9-28.6-21-40.5c-10.7-12.7-24.6-19.5-40.7-22.3c-31.6-5.4-60.5-0.2-84.8,22.1c-18.7,17.1-29.6,39-37.3,62.7
	c-8.8,27.2-12.6,55.1-13.4,83.6c-1.1,41.5,0.6,82.8,12.1,123.1c7.4,25.9,18.2,50,40.1,67.4c20.2,16.1,43.5,19.5,68.3,16.6
	c13.6-1.6,26.6-4.9,37.4-14.1c12.1-10.3,17.5-24.1,18.2-39.2c1-21.5,1.7-43.2-1.3-64.7c-2.5-17.8-12.6-29.4-30.2-33.3
	c-8.8-2-5.3-8.3-5.6-13c-0.4-6.1,4.8-3.9,7.7-3.9c36.7-0.1,73.4-0.1,110.1,0c2.5,0,7.3-1.9,7.1,2.8c-0.2,4.8,3.9,11.2-4.3,14.1
	c-16.6,5.9-22.7,19.1-24.3,35.5c-2.6,26.8-0.9,53.7-1.3,80.6c-0.3,17.1-0.2,34.2,0,51.3c0.1,4.5-1.6,6-5.8,7.8
	c-13.5,5.8-23,3.1-31.8-9.2c-7.7-10.8-8.7-9.9-20.9-3.8c-21.6,10.8-44.6,16.5-68.8,17.1c-22.7,0.6-45-0.3-66.9-7.5
	c-38.3-12.6-63.9-38.7-80.3-74.6c-13.2-29.1-19-60-21.4-91.7c-1.9-25.4-2.5-50.7,0.2-76c5.8-53.2,21.7-102.1,61.9-140
	c26.3-24.8,57.9-38.1,93.8-41.6c44-4.3,87,1.8,129.8,11.3c5.4,1.2,7.4,3.2,7.2,8.9C1306.5,35.7,1306.8,47.5,1306.8,59.3z M626.9,6.9
	c-3.4,0-7.8-1.7-7.7,4.9c0.2,32.9,0.1,65.8,0,98.7c0,3.5,1.2,5,4.8,4.9c6.8-0.2,13.6-0.3,20.3,0c5,0.3,6.8-1.6,8-6.4
	c4.5-18.5,9.8-36.9,20.4-53.1c8.5-13.1,20.5-20.4,36.3-20.6c14.1-0.1,28.1,0,42.2-0.4c5.3-0.1,6.8,1.6,6.8,6.8
	c-0.2,108.5-0.2,217.1-0.3,325.6c0,5.5-0.7,11-1.8,16.4c-2.6,13.4-10.5,22.5-23.6,26.8c-3.8,1.2-7.7,2.2-11.5,3.3
	c-7.4,2.3-3.2,8.4-4,12.8c-0.7,3.7,2.3,3.7,4.9,3.7c44,0,88,0,131.9,0c1.7,0,3.6,0.5,4.7-1.5c3.1-5.1-0.8-14.1-6.8-15.3
	c-17.8-3.8-30.3-13.1-33-32.2c-1-7.4-2.1-14.9-2.1-22.4c0.1-51.5,0.1-103,0.1-154.5c0-54,0.1-108-0.1-162.1c0-5.3,0.9-7.6,6.9-7.4
	c13.8,0.5,27.6,0.2,41.5,0.3c16.5,0,28.7,7.7,37.6,21.2c7.6,11.4,12,24.2,16.3,37.1c2.4,7.1,1.7,17.3,7.2,20.6
	c5.8,3.5,15.1,0.8,22.9,1.3c5.5,0.4,6.7-1.7,6.6-6.8c-0.2-31.2-0.3-62.3,0-93.5c0.1-6.4-1.3-8.5-8.2-8.4
	C894.1,7,840.8,6.9,787.5,6.9C734,6.9,680.5,6.9,626.9,6.9z M440.7,206.9c0-54.5,0.1-109.1-0.2-163.6c0-6.8,2-8.5,8.5-8.3
	c13.8,0.6,27.6,0.1,41.5,0.4c13.6,0.3,24.6,6.3,32.8,17.1c4.4,5.8,8,12.1,10.9,18.9c5.3,12.2,9.4,24.8,12.4,37.8
	c1.1,4.6,3,6.7,8.1,6.3c6-0.5,12.1-0.4,18.1,0c5.3,0.4,6.8-1.4,6.8-6.7c-0.2-31.7-0.2-63.3,0-95c0-5.1-1.1-6.9-6.6-6.9
	c-107.8,0.2-215.7,0.1-323.5,0c-5.1,0-6.3,1.7-6.2,6.5c0.2,26.4,0,52.8,0.2,79.2c0.1,7.4-3.3,17.1,1.6,21.7c4.4,4.2,14,0.5,21.1,1.3
	c6.6,0.8,9-1.9,10.4-8.1c4.1-17.6,9.5-34.8,19.1-50.4c8.8-14.1,21.3-21.6,38-21.7c13.3-0.1,26.7,0.3,40-0.4c7.1-0.3,8.6,2.1,8.6,8.8
	c-0.2,103.5-0.1,207.1-0.2,310.6c0,8.3-0.5,16.6-1.6,24.8c-2.1,16.4-10.2,28.1-27,32.3c-2.7,0.7-5.2,1.9-7.9,2.2
	c-9.3,1.2-4.9,8.4-5.4,13c-0.6,5.6,4.3,3.7,7,3.7c42.2,0.1,84.5,0.1,126.7,0c2.8,0,8.1,2.5,7.8-3.6c-0.3-4.9,3.6-11.6-6.1-13.3
	c-16.5-2.8-29.1-11-32.5-28.9c-1-5.1-2-10.4-2-15.6c-0.1-54-0.1-108.1-0.1-162.1C440.9,206.9,440.8,206.9,440.7,206.9z
	 M1245.3,596.9c-1.2,0-2.6-0.2-3.1,1.4c-0.4,1.4,0.3,2.1,1.5,2.9c7.7,5.9,10.3,21.9,5.2,30.1c-2,3.2-4.8,4.9-8.4,5.8
	c-12.2,2.8-22.1-1.6-26.7-13.8c-7.5-19.9-7.5-40.3,0-60.3c2.1-5.7,6-10.4,11.6-13.4c12-6.3,24.4-1.9,30,11.2c1.4,3.2,3,4.2,6.1,4
	c4.3-0.3,2.7-3.5,2.8-5.6c0.5-15.4,0.4-15.4-14.7-17.7c-3.7-0.6-7.5-0.7-11.3-0.7c-21-0.1-35.3,10.2-41.5,30.2
	c-4.1,13.2-3.9,26.7-1.7,40.2c4.4,27.6,27.8,40.7,53.6,29.6c3.5-1.5,5.9-2.1,8.2,1.4c1.6,2.5,3.7,1.9,5.9,1.1c2.9-0.9,1.8-3.3,1.8-5
	c0.1-8.3,0.1-16.6,0-24.9c0-3.3,0.8-6.4,2.4-9.3c1.3-2.3,6.3-2.4,4.5-5.8c-1.5-2.9-5.4-1-8.3-1.3c-2-0.2-4,0-6,0
	C1253.3,596.9,1249.3,596.8,1245.3,596.9z M549.6,541.5c0-2.4,0.6-5.2-3.6-4.8c-5.2,0.5-10.5,0.5-15.8,0.8c-1.1,0.1-2.7-0.4-3,1.4
	c-0.4,1.9,0.8,2.7,2.5,3c6.5,1.3,7.2,6.4,7.2,11.5c0.2,24.6,0.2,49.2,0.1,73.8c0,4.7-0.3,9.8-6.3,11.5c-1.4,0.4-2.2,1.4-2,2.8
	c0.3,2.2,2.2,1.6,3.6,1.6c7.3,0.1,14.6,0.1,21.8,0c1.1,0,2.7,0.4,3.2-1.2c0.6-1.8-0.4-2.8-2.1-3.3c-3.9-1.3-5.5-4.4-5.5-8.1
	c-0.1-11.8-0.4-23.6,0.1-35.4c0.3-7.7,9.4-15.4,17-15.4c8.1,0.1,12.6,4.9,12.9,15.2c0.3,10.8,0,21.6,0.2,32.4
	c0.1,4.8-0.4,9.1-5.5,11.2c-1.3,0.5-2.1,1.4-2.1,2.8c0,1.8,1.4,1.8,2.7,1.8c7.8,0,15.6,0,23.3,0c0.9,0,2.1,0.3,2.4-1.1
	c0.3-1.4,0-2.7-1.4-3c-6.9-1.9-6.4-7.5-6.6-12.7c-0.3-12.3,0.1-24.6-0.7-36.9c-1.1-15.8-14.4-22.8-28.7-16.1
	c-4.8,2.3-8.3,6.3-13.7,10.1C549.6,568.6,549.7,555,549.6,541.5z M208.4,543.1c-18.8,6.8-23.5,28.7-9.1,42.5c4.4,4.2,9.7,7,15.1,9.8
	c5.6,2.9,11.3,5.6,15.8,10c5.9,5.7,7.8,15.4,4.6,22.9c-3.1,7-9.1,9.7-18.8,9.3c-9.3-0.4-15.1-5.1-17.5-13.8
	c-0.9-3.3-2.6-3.7-5.3-3.6c-3.5,0.1-3.1,2.5-3.1,4.7c0,3.8,0.1,7.5,0,11.3c-0.1,3,1,4.8,4.1,5.2c10.6,1.6,21.1,4,32.1,2
	c10.7-2,18.8-6.7,22-17.7c3.3-11.6,1.3-21.8-8.1-30c-5.6-4.8-12-8.1-18.5-11.4c-4.9-2.5-9.8-5.2-13.4-9.6
	c-8.7-10.7-3.4-25.4,10.1-27.7c9.8-1.7,16.1,2,21,12.7c1.4,3.1,3.1,4.2,6.3,3.7c3.7-0.5,2.5-3.3,2.4-5.2c-0.5-17.7,4-14.1-15-17.4
	c-2.5-0.4-5-0.3-7.5-0.4C219.5,540.2,213.9,541.1,208.4,543.1z M48,589.5c0-12.1,0-24.1,0-36.2c0-1.8-0.8-4,1.8-5.1
	c6.5-2.7,16.9,0.8,20.2,7.4c1.3,2.7,2.3,5.6,3.1,8.4c0.8,3,2.5,3.9,5.5,3.7c3.6-0.2,3-2.6,3.1-4.8c0-5-0.3-10.1,0.1-15.1
	c0.4-5-1.5-6.3-6.4-6.3c-18.6,0.3-37.2,0.1-55.8,0.1c-6,0-13.9-1.9-17.5,1.1c-4.2,3.6-1.2,11.8-1.3,18c0,2.3-2.4,6.3,3,6.9
	c4.7,0.5,5-2.6,6-5.8c3.5-11.8,7-14,18.8-13.9c4.4,0,5.4,1.4,5.4,5.6c-0.1,24.1,0,48.2,0,72.3c0,5.7-0.3,11.3-7.5,12.8
	c-1.4,0.3-2.1,1.4-2,2.8c0.2,1.7,1.6,1.6,2.9,1.6c9.3,0,18.6,0,27.9,0c0.9,0,2.1,0.2,2.4-1.2c0.3-1.4-0.1-2.6-1.6-2.9
	c-8.4-1.8-8.1-8.6-8.3-14.8c-0.3-11.5-0.1-23.1-0.1-34.7C47.9,589.5,48,589.5,48,589.5z M342.1,590.2c0-12.1-0.1-24.1,0.1-36.2
	c0-2-1.1-4.6,1.9-5.8c6.6-2.8,16.9,0.8,20.2,7.4c1.3,2.7,2.3,5.6,3.1,8.4c0.8,3,2.5,3.8,5.5,3.7c3.6-0.2,3-2.6,3-4.8
	c0-5-0.3-10.1,0.1-15.1c0.4-5.1-1.6-6.3-6.4-6.2c-18.6,0.3-37.2,0.1-55.8,0.1c-19,0-19.1,0-18.7,19.1c0,2.4-2.3,6.3,3,6.9
	c4.7,0.5,5-2.7,6-5.9c3.5-11.8,7-13.9,18.9-13.9c4.4,0,5.4,1.5,5.4,5.6c-0.1,24.1,0,48.2,0,72.3c0,5.7-0.3,11.3-7.6,12.8
	c-1.4,0.3-2.1,1.4-1.9,2.8c0.2,1.7,1.7,1.6,2.9,1.6c9.3,0,18.6,0,27.9,0c0.9,0,2.1,0.2,2.4-1.2c0.3-1.4-0.1-2.6-1.6-2.9
	c-8.4-1.8-8.1-8.7-8.3-14.9c-0.3-11.3-0.1-22.6-0.1-33.9C342,590.2,342.1,590.2,342.1,590.2z M622.5,571.9c-2,0.1-4,0.1-6,0.2
	c-1.4,0.1-3.2-0.4-3.4,1.9c-0.1,1.4,0.8,2.3,2.2,2.6c6.6,1.3,6.8,6.3,6.8,11.6c-0.1,13.3-0.1,26.6,0,39.9c0,4.5-0.6,8.6-5.4,10.5
	c-1.6,0.6-2.6,1.6-2,3.4c0.5,1.7,2,1.1,3.2,1.1c7.3,0.1,14.6,0.1,21.8,0c1.1,0,2.7,0.5,3.2-1c0.6-1.7-0.3-2.9-2-3.4
	c-2.9-0.9-5-2.6-5.3-5.7c-1.2-13.3-1.9-26.6,0-39.8c1.1-7.6,10.4-13.9,17.8-13.4c6.8,0.4,10.3,4.2,11.5,14.2
	c1.4,12,0.8,24.1,0.4,36.1c-0.1,3.8-1.4,7.5-5.8,8.7c-1.4,0.4-2.3,1.3-2.1,2.7c0.1,1.6,1.6,1.7,2.8,1.7c8,0,16.1,0,24.1,0
	c1,0,2.1,0.1,2.3-1.2c0.3-1.4-0.4-2.6-1.7-2.9c-7.2-1.9-6.9-7.7-6.9-13.3c-0.1-11.3,0.1-22.6-0.2-33.9
	c-0.5-18.4-15.6-26.6-31.4-17.1c-4,2.4-7.5,5.7-11.9,9.1C634.4,571.5,634.4,571.5,622.5,571.9z M1490.6,643.3c2-0.1,4-0.1,6-0.2
	c1.4-0.1,3.2,0.4,3.4-1.9c0.1-1.4-0.6-2.3-2.1-2.6c-6.4-1.5-6.8-6.5-6.8-11.8c0-13.1-0.1-26.1-0.1-39.2c0-16.2,0-16.2-16.3-15.5
	c-0.3,0-0.5,0-0.8,0c-1.3,0.3-3.3-0.7-3.8,1.3c-0.6,2,1.2,2.6,2.6,3c3.9,1.3,5.7,4.2,5.8,8c0.2,11.8,0.5,23.6,0,35.4
	c-0.4,8-9.9,15.8-17.7,15.6c-7.9-0.2-11.8-4.9-12.2-15.8c-0.4-10.5-0.3-21.1-0.3-31.6c0.1-17.1,0.1-17.1-16.8-15.8
	c-0.2,0-0.5,0-0.8,0c-1.2,0.1-2.7-0.3-3.1,1.3c-0.4,1.5,0.6,2.4,1.8,2.8c5.4,1.8,5.8,6.2,5.8,11c0.2,13.1-0.4,26.2,0.9,39.1
	c1.7,16.2,16.4,22.8,30.6,14.5c4-2.4,7.5-5.6,12-9C1479,643.7,1479,643.7,1490.6,643.3z M1105.6,574.6c-12.4,6.4-14,20.8-3.2,29.6
	c3.9,3.2,8.6,5,13.2,7.2c3.6,1.7,7.3,3.3,10.7,5.4c4.8,2.9,6.4,7.6,5.3,13c-1,5.1-5,7.3-9.6,8.4c-8.6,2-15.8-1-19.8-9.4
	c-1.9-3.8-5.3-4.6-7-2.9c-3.2,3.1-0.9,8-1.4,12.2c-0.2,2.5,1,3.3,3.4,3.8c10.1,2.2,20.3,3.5,30.6,1.3c11.5-2.4,17.6-10.9,16.2-22.5
	c-0.9-7.7-6.4-11.6-12.5-14.9c-5.7-3.1-11.8-5.5-17.6-8.5c-4.9-2.6-7.3-7.1-6-12.6c1.2-5.5,5.7-7.2,10.7-7.8
	c7.5-0.9,13.4,1.5,16.6,8.7c1.3,2.9,3.6,3.2,6.2,2.9c3.7-0.4,2-3.3,2.4-5.3c1.3-7.5-0.9-12-9.5-11.5c-3.2,0.2-6.5-0.6-9-0.9
	C1118,570.9,1111.6,571.5,1105.6,574.6z M464.2,595.2c-2.7,9.9-2.2,19.9,0.8,29.7c3,9.8,9.2,16.6,19.7,18.5
	c12.1,2.2,22.2-1.3,30.8-9.9c1.9-1.9,1.6-3.3,0.1-5.1c-1.7-2-2.7-1.1-4.2,0.3c-1.7,1.5-3.5,2.8-5.5,3.9c-9.5,5.3-21.2,3.5-25.2-4.9
	c-6.9-14.6-6.5-29.7,1.3-44c5-9.2,21.3-10.1,24.4,1.6c1.3,5,4.9,4,8.3,3.9c4.1-0.2,2.4-3.6,2.8-5.7c1.4-7.9-1.8-11.6-9.9-11.5
	c-3.2,0.1-6.4-0.8-7.5-1C480.6,570.6,468.5,579.3,464.2,595.2z M800,554.2c0-18.8,0-18.8-18.8-16.7c-1.3,0.1-3.3-0.5-3.6,1.6
	c-0.3,1.9,1,2.6,2.7,2.9c4.7,1,6.5,4.2,6.7,8.7c0.9,26.4,0.8,52.7,0.1,79.1c-0.1,3.8-1,7.6-5.6,8.8c-1.7,0.4-2.7,1.4-2.3,3.2
	c0.4,1.7,1.9,1.3,3.1,1.3c7.5,0,15.1,0,22.6,0c1.2,0,2.7,0.2,3.1-1.4c0.3-1.4-0.3-2.4-1.7-2.9c-5.9-1.8-6.1-6.7-6.1-11.6
	c0-14.1,0-28.1,0-42.2C800,574.8,800,564.5,800,554.2z M1305,571.9c-3-1.8-8.2,0-12.5,0.1c-1.5,0.1-3,0-4.5,0.2
	c-1.3,0.1-3.3-0.6-3.6,1.6c-0.3,1.9,1.1,2.5,2.7,2.9c5.6,1.4,6.3,5.5,6.3,10.4c-0.1,13.3-0.1,26.6,0,39.9c0,5-0.2,9.6-5.8,11.8
	c-1.4,0.5-1.9,1.6-1.7,3c0.3,1.7,1.8,1.4,3,1.4c7.8,0,15.6,0,23.3,0c1.3,0,3.3,0.5,3.3-1.9c0-1.4-1-2.2-2.4-2.4
	c-5.9-1-6.6-5.4-6.7-10.1c-0.2-9.8-0.3-19.6-0.3-29.3c0-6.7,2.7-12.3,8.1-16.2c4.5-3.2,9.8-4.2,13.3,0.9c2.6,3.7,5.4,5.5,9.2,4.1
	c3.5-1.4,1.2-5.3,1.8-8c0.2-1-0.1-2,0.1-3c1-5.6-2-6.5-6.8-6.5c-10.8,0-18.3,5.7-25.3,14.2C1304,579.7,1308.6,574.1,1305,571.9z
	 M997,588.6c0.1-18.3,0.1-18.3-18-16.6c-0.2,0-0.5,0-0.8,0c-1.1,0.2-2.7-0.4-3.1,1.3c-0.4,1.8,0.5,2.8,2.3,3.2
	c6.1,1.3,6.7,5.7,6.6,10.9c-0.1,12.5,0,25.1,0,37.6c0,5.6,0.6,11.3-6.2,13.9c-1.3,0.5-1.7,1.7-1.3,3.1c0.4,1.3,1.6,1,2.5,1
	c7.8,0,15.5,0,23.3,0c0.9,0,2.1,0.3,2.5-1.1c0.3-1.3,0.1-2.7-1.3-3.1c-6.9-1.8-6.5-7.5-6.5-12.7c-0.1-7.8,0-15.5,0-23.3
	C997,598.2,997,593.4,997,588.6z M990.3,557.4c4.7-0.4,8.1-0.1,7.5-6.6c-0.4-4.9,0.1-8.5-6.9-8.1c-5.4,0.3-8.2,1.2-6.8,7.1
	C983.2,554.8,983.9,557.9,990.3,557.4z M969,576.6c-0.2,4.4-3.1,2.8-5.3,2.9c-2.7,0.2-5.4-1.2-8.5,0.5c2.7,5.1,4.6,10.5,4.1,16.4
	c-1.2,15.7-12.2,24.4-29.9,23.4c-1.8-0.1-3.5-0.3-5.2-0.6c-5.8-1.2-8.6,2-9.5,7c-1,5.9,3.4,7.4,7.9,7.6c7,0.4,14,0.1,21.1,0.2
	c13.3,0.2,20.5,4.6,22.2,13.5c2.2,11.9-3.1,21.2-15.4,25.8c-13,4.8-26.3,4.3-39.1-0.2c-13.7-4.7-15.6-17.3-4.7-26.8
	c2.3-2,4.9-2.8,1-6.4c-5.1-4.7-4.6-11.1,0.2-16.8c1.9-2.3,4.3-4.1,6.7-6.4c-5-4.2-8.5-8.9-9.9-15c-4-17.7,8.7-31.9,28.7-30.7
	c10.3,0.7,20.5,1.2,30.8,1.1C967.5,572.1,969.3,572.6,969,576.6z M911.7,655c-1.2,6.8,2.1,11.6,9.3,14.1c3.7,1.3,7.4,1,11.1,1.3
	c5.1,0.2,10-0.2,14.6-2.6c6-3.2,8.7-8.2,7.3-14.9c-1.3-6.4-6.2-8-11.9-8.1c-5.8-0.1-11.5-0.1-17.3-0.1
	C917.5,644.6,912.9,648.2,911.7,655z M944.2,584.7c-2.1-4.9-5.9-7.9-11.6-8c-5.4-0.2-9.9,1.3-12.7,6.2c-2.1,3.6-2.4,7.6-2.4,11.6
	c0.1,2.3,0.1,4.5,0.4,6.8c1.3,7.7,6.5,12.7,13.5,12.9c7.3,0.3,12-3.6,14.1-11.8C947.1,596.3,946.6,590.3,944.2,584.7z M179.9,641.7
	c-0.3,1.7-1.8,1.4-3,1.4c-4.8,0-9.5,0-14.3,0c-4.5,0-9,0.1-13.6,0c-1.1,0-2.7,0.5-3.1-1.2c-0.4-1.4,0.2-2.6,1.6-2.8
	c9-1.4,7.6-8.1,6.7-13.9c-2.4-15.5-2.5-15.5-18.3-15.5c-3,0-6.1-0.3-9,0.1c-4.1,0.5-9.8-2.4-11.9,1.7c-3.5,6.5-6.5,13.7-5.1,21.6
	c0.6,3.3,2.9,5.2,6.2,5.7c1.4,0.2,2.3,1.1,2.3,2.5c0,2.3-1.9,1.9-3.3,1.9c-8.3,0-16.6,0-24.9,0c-1.1,0-2.7,0.3-3.1-1.3
	c-0.4-1.4,0.4-2.3,1.7-2.9c6.7-3,8.8-9.4,11.2-15.4c9.8-25.7,19.6-51.5,29-77.4c1.9-5.4,5.1-5.4,9.6-5.7c5.3-0.4,5.5,3.3,6.4,6.5
	c8.1,26.6,16.2,53.2,24.4,79.7c1.5,5,3.1,10.2,8.9,12.2C179.7,639.3,180.2,640.4,179.9,641.7z M146.7,597.4
	c-4.2-13.3-8.2-26.7-12.7-41.5c-5.3,14.8-10.1,28.7-15.2,42.5c-1.3,3.6-0.1,4.4,3.2,4.4c6.8-0.1,13.6-0.3,20.3,0.1
	C147.1,603.1,148.1,601.6,146.7,597.4z M1580.4,623.6c-5.2,16.7-19.9,24.2-40.1,19.3c-6.5-1.6-7.9-0.4-7.3,5.7
	c0.4,3.7,0.1,7.5,0.1,11.3c0,4.8,0.9,9,6.2,10.8c1.3,0.5,3.1,1,2.5,3c-0.5,1.7-2,1.2-3.2,1.2c-7.8,0.1-15.6,0.1-23.4,0
	c-1.1,0-2.6,0.5-3.1-1.2c-0.5-1.6,0.7-2.4,1.9-2.7c5.7-1.5,6.3-6.3,6.4-10.7c0.2-24.6,0.2-49.2,0.1-73.9c0-4.4-1.1-8.6-6.4-9.8
	c-1.7-0.4-2.7-1.4-2.3-3.2c0.4-1.6,1.8-1.4,3-1.4c2.3-0.1,4.5-0.1,6.8-0.2c11.3-0.4,11.3-0.4,11.5,12.3c4.4-4.1,7.6-7.5,11.8-9.8
	c14-7.8,29.7-2.3,34.9,12.9C1583.8,599.2,1584.2,611.5,1580.4,623.6z M1566.9,592.4c-2.4-9-8.7-13.3-17.1-12.6
	c-8.4,0.8-16.1,8.5-16.6,16.8c-0.2,4,0,8,0,12.1c0,0,0.1,0,0.1,0c0,4.5-0.3,9.1,0.1,13.6c0.7,9.8,5.2,14.9,13.8,16.1
	c9.3,1.3,16-2.7,19.2-11.9C1570.3,615.2,1570,603.7,1566.9,592.4z M764,607.1c0.2,26.5-14.9,40.3-40.2,36.4
	c-11.6-1.8-19-8.5-22.3-19.7c-2.8-9.6-3.1-19.3-0.5-29c4.2-16.1,17.8-25.4,34.5-23.7c17.6,1.7,27.5,12.2,28.5,30.1
	C764.1,603,764,605.1,764,607.1z M750.2,608.8c0.4-7.8-0.5-15.2-3.8-22.2c-2.7-5.8-7.1-9.5-13.9-9.8c-7.1-0.3-12.4,3-15,9.1
	c-6.2,14.5-5.9,29.3,0.4,43.6c2.6,5.9,7.8,9.1,14.5,8.9c7-0.2,11.8-3.9,14.5-10.1C749.7,622,750.8,615.4,750.2,608.8z M886.1,607
	c0.3,26.5-14.9,40.3-40.2,36.4c-11.6-1.8-19-8.5-22.3-19.7c-2.8-9.6-3.1-19.3-0.5-29c4.2-16.1,17.8-25.4,34.5-23.7
	c17.6,1.7,27.5,12.2,28.5,30C886.2,603,886.1,605,886.1,607z M872.4,608.7c0.4-7.7-0.5-14.9-3.6-21.6c-2.7-6.1-7.2-10.1-14.4-10.3
	c-7.5-0.2-12.6,3.5-15.2,10c-5.7,14.1-5.3,28.4,0.5,42.3c2.6,6.2,7.9,9.6,15,9.4c7-0.2,11.7-4.1,14.4-10.3
	C871.9,621.9,872.9,615.2,872.4,608.7z M1414,606.7c0.4,26.6-14.6,40.4-39.9,36.8c-11.3-1.6-18.9-7.9-22.2-18.7
	c-3.2-10.3-3.6-20.8-0.5-31.2c4.9-16.1,18.4-24.7,35.3-22.5c16.8,2.1,26.3,12.4,27.3,29.6C1414.1,602.7,1414,604.7,1414,606.7z
	 M1400.3,608.7c0.4-7.7-0.5-14.9-3.6-21.6c-2.7-6.1-7.2-10.1-14.4-10.3c-7.5-0.2-12.6,3.5-15.2,10c-5.6,14.1-5.3,28.4,0.5,42.3
	c2.6,6.2,7.9,9.6,15,9.4c7-0.3,11.7-4.1,14.4-10.3C1399.9,621.8,1400.8,615.2,1400.3,608.7z M448.7,603.7c-0.6,3.6-2.8,2.9-4.9,2.9
	c-6.3,0.1-12.6,0-18.8,0c-6.3,0-12.6,0.1-18.8-0.1c-3.3-0.1-4.5,1.1-4.2,4.4c0.8,9,2,18.1,11.1,22.4c9.2,4.4,18.2,2.2,25.9-4.4
	c2.3-1.9,3.9-3.9,6.6-0.6c2.9,3.5-0.8,4.4-2.2,5.8c-10.9,10.4-26.9,12.9-39.7,6.4c-11-5.6-17.1-21-15-37.6
	c2.8-22.4,17.9-35.2,37.4-31.8C440.6,573.8,451.1,589.1,448.7,603.7z M421.4,576.8c-8.3-0.8-15,4.6-17.6,14.1
	c-2.3,8.4-1.4,9.6,7.1,9.6c2.7,0,5.5,0,8.2,0c4,0,8,0,12,0c1.4,0,2.9,0.3,3.7-1.6C437.7,591.7,429.1,577.5,421.4,576.8z
	 M1080.7,604.2c-0.7,3-2.7,2.5-4.5,2.5c-6.3,0.1-12.6,0-18.8,0c-6.3,0-12.6,0.2-18.8-0.1c-3.7-0.1-4.8,1.2-4.5,4.8
	c0.9,9,2.2,18,11.5,22.2c9.3,4.1,18.2,1.8,25.8-4.9c2.1-1.8,3.5-3.3,6.1-0.5c3.1,3.3-0.3,4.4-1.8,5.8c-10.7,10.5-26.8,13.1-39.6,6.7
	c-11.2-5.6-17.6-21.4-15.2-38.2c3.3-23.9,20.3-36.4,41.4-30.4C1073.9,575.6,1083.5,592.4,1080.7,604.2z M1058.9,578.6
	c-5.4-3.4-13.1-2.3-17.8,2.7c-3,3.2-4.6,7-5.7,11.2c-1.5,5.9-0.2,9.1,6.8,8.1c2.9-0.4,6-0.1,9-0.1c4,0,8,0,12,0
	c1.4,0,2.9,0.2,3.6-1.7C1068.3,594.5,1063.3,581.4,1058.9,578.6z M1515,488.7L1515,488.7c0-2.6-2.1-4.6-4.6-4.6H87.8
	c-2.6,0-4.6,2.1-4.6,4.6l0,0c0,2.6,2.1,4.6,4.6,4.6h1422.6C1512.9,493.3,1515,491.2,1515,488.7z"/>
</svg>
